<svg id="Layer_1" data-name="Layer 1" xmlns="http://www.w3.org/2000/svg" viewBox="0 0 225.64 58.77"><defs><style>.cls-1{fill:#6a6b6d;}.cls-2{fill:#231f20;}.cls-3{fill:none;stroke:#faae42;stroke-miterlimit:10;}.cls-4{fill:#faae42;}</style></defs><title>new hair</title><polygon class="cls-1" points="22.92 30.27 22.92 6.64 28.23 6.64 28.23 39.85 24.2 39.85 5.36 16.42 5.36 39.85 0 39.85 0 6.64 4.08 6.64 22.92 30.27"/><polygon class="cls-1" points="58.26 39.85 33.73 39.85 33.73 6.64 58.12 6.64 58.12 11.81 39.05 11.81 39.05 20.78 57.36 20.78 57.36 25.72 39.05 25.72 39.05 34.63 58.26 34.63 58.26 39.85"/><polygon class="cls-1" points="96.31 39.9 91.62 39.9 87.2 28.18 83.55 17.03 79.9 28.23 75.53 39.9 70.88 39.9 58.83 6.64 64.76 6.64 73.21 32.22 81.8 6.64 85.21 6.64 93.99 32.22 102.25 6.64 108.17 6.64 96.31 39.9"/><polygon class="cls-2" points="139.12 39.85 139.12 24.76 117.96 24.76 117.96 39.85 115.39 39.85 115.39 6.63 117.96 6.63 117.96 22.44 139.12 22.44 139.12 6.63 141.68 6.63 141.68 39.85 139.12 39.85"/><path class="cls-2" d="M266.55,122.13,262.9,114H243.06l-3.61,8.16h-2.75l14.9-33.21h2.8l14.9,33.21ZM261.9,111.6,253,91.39l-8.92,20.21Z" transform="translate(-91.94 -82.28)"/><path class="cls-2" d="M316.89,122.13h-3.37L302,109.56H293v12.57h-2.56V88.92H305c7.21,0,10.86,5.17,10.91,10.34,0,5.41-3.51,10.15-10.77,10.15Zm-23.91-15h11.77c5.79,0,8.35-3.27,8.4-7.92,0-3.89-2.61-7.92-8.11-7.92H293Z" transform="translate(-91.94 -82.28)"/><path class="cls-2" d="M92.81,139.2H92v-6.61h3a2.24,2.24,0,1,1,0,4.48H92.81ZM95,133.36H92.81v2.95H95a1.47,1.47,0,0,0,0-2.95" transform="translate(-91.94 -82.28)"/><polygon class="cls-2" points="7.43 56.15 11.03 56.15 11.03 56.92 6.61 56.92 6.61 50.31 7.43 50.31 7.43 56.15"/><path class="cls-2" d="M107.29,132.59l3,6.61h-.89l-.65-1.45h-3.78l-.64,1.45h-.9l3-6.61Zm-.46.83L105.26,137h3.14Z" transform="translate(-91.94 -82.28)"/><polygon class="cls-2" points="20.02 50.31 24.07 55.37 24.07 50.31 24.88 50.31 24.88 56.92 24.32 56.92 20.26 51.88 20.26 56.92 19.44 56.92 19.44 50.31 20.02 50.31"/><polygon class="cls-2" points="26.02 51.05 26.02 50.31 31.34 50.31 31.34 51.05 29.09 51.05 29.09 56.92 28.27 56.92 28.27 51.05 26.02 51.05"/><path class="cls-2" d="M127.46,139.2h-.81v-6.61h3a2.24,2.24,0,1,1,0,4.48h-2.19Zm2.19-5.85h-2.19v2.95h2.19a1.47,1.47,0,0,0,0-2.95" transform="translate(-91.94 -82.28)"/><polygon class="cls-2" points="42.08 56.15 45.68 56.15 45.68 56.92 41.26 56.92 41.26 50.31 42.08 50.31 42.08 56.15"/><path class="cls-2" d="M141.93,132.59l3,6.61H144l-.65-1.45h-3.78l-.64,1.45H138l3-6.61Zm-.46.83L139.9,137H143Z" transform="translate(-91.94 -82.28)"/><path class="cls-2" d="M148.18,133.19c-.84,0-1.74.33-1.74,1.13s.82.93,1.79,1.09c1.32.21,2.63.47,2.63,2s-1.43,2-2.69,2a2.87,2.87,0,0,1-2.8-1.53l.68-.4a2.4,2.4,0,0,0,2.13,1.16c.8,0,1.87-.25,1.87-1.23,0-.82-.92-1.06-1.91-1.21-1.27-.2-2.51-.49-2.51-1.83s1.39-1.85,2.53-1.85a2.59,2.59,0,0,1,2.5,1.2L150,134a2.2,2.2,0,0,0-1.86-.85" transform="translate(-91.94 -82.28)"/><polygon class="cls-2" points="63.7 54.84 63.53 54.84 61.13 51.48 61.13 56.92 60.32 56.92 60.32 50.31 61.3 50.31 63.63 53.71 65.93 50.31 66.91 50.31 66.91 56.92 66.1 56.92 66.1 51.5 63.7 54.84"/><path class="cls-2" d="M163.88,132.59l3,6.61H166l-.65-1.45h-3.78l-.64,1.45H160l3-6.61Zm-.46.83L161.85,137H165Z" transform="translate(-91.94 -82.28)"/><polygon class="cls-2" points="78.27 50.31 80.09 55.78 81.93 50.31 82.45 50.31 84.31 55.78 86.11 50.31 87.04 50.31 84.73 56.93 83.91 56.93 82.19 51.98 80.48 56.93 79.65 56.93 77.35 50.31 78.27 50.31"/><rect class="cls-2" x="88.26" y="50.31" width="0.82" height="6.61"/><polygon class="cls-2" points="90.22 51.05 90.22 50.31 95.54 50.31 95.54 51.05 93.29 51.05 93.29 56.92 92.47 56.92 92.47 51.05 90.22 51.05"/><polygon class="cls-2" points="101.27 53.94 97.5 53.94 97.5 56.92 96.67 56.92 96.67 50.31 97.5 50.31 97.5 53.17 101.27 53.17 101.27 50.31 102.1 50.31 102.1 56.92 101.27 56.92 101.27 53.94"/><path class="cls-2" d="M199.21,139.2h-.81v-6.61h3a2.24,2.24,0,1,1,0,4.48h-2.19Zm2.19-5.85h-2.19v2.95h2.19a1.47,1.47,0,0,0,0-2.95" transform="translate(-91.94 -82.28)"/><path class="cls-2" d="M211.25,135.92a3.36,3.36,0,1,1-3.34-3.44,3.23,3.23,0,0,1,3.34,3.44m-3.34-2.68a2.67,2.67,0,1,0,2.52,2.68,2.48,2.48,0,0,0-2.52-2.68" transform="translate(-91.94 -82.28)"/><polygon class="cls-2" points="121.57 56.15 125.16 56.15 125.16 56.92 120.74 56.92 120.74 50.31 121.57 50.31 121.57 56.15"/><polygon class="cls-2" points="124.64 50.34 124.64 50.31 125.64 50.31 127.62 53.44 129.65 50.31 130.65 50.31 130.65 50.34 128.04 54.24 128.04 56.92 127.19 56.92 127.19 54.24 124.64 50.34"/><path class="cls-2" d="M224.57,139.2h-.81v-6.61h3a2.24,2.24,0,1,1,0,4.48h-2.19Zm2.19-5.85h-2.19v2.95h2.19a1.47,1.47,0,0,0,0-2.95" transform="translate(-91.94 -82.28)"/><polygon class="cls-2" points="138.37 50.31 143.01 50.31 143.01 51.06 139.18 51.06 139.18 53.13 142.85 53.13 142.85 53.9 139.18 53.9 139.18 56.13 143.16 56.13 143.16 56.92 138.37 56.92 138.37 50.31"/><path class="cls-2" d="M237.36,139.2h-.81v-6.61h3a2.24,2.24,0,1,1,0,4.48h-2.19Zm2.19-5.85h-2.19v2.95h2.19a1.47,1.47,0,0,0,0-2.95" transform="translate(-91.94 -82.28)"/><polygon class="cls-2" points="150.44 51.05 150.44 50.31 155.77 50.31 155.77 51.05 153.51 51.05 153.51 56.92 152.7 56.92 152.7 51.05 150.44 51.05"/><rect class="cls-2" x="156.9" y="50.31" width="0.82" height="6.61"/><path class="cls-2" d="M251.51,132.58h2.41a3.13,3.13,0,0,1,3.32,3.24,3.17,3.17,0,0,1-3.32,3.38h-2.41v-6.61Zm4.91,3.23a2.35,2.35,0,0,0-2.5-2.44h-1.59v5h1.59a2.4,2.4,0,0,0,2.5-2.57" transform="translate(-91.94 -82.28)"/><polygon class="cls-2" points="166.75 50.31 171.4 50.31 171.4 51.06 167.56 51.06 167.56 53.13 171.23 53.13 171.23 53.9 167.56 53.9 167.56 56.13 171.55 56.13 171.55 56.92 166.75 56.92 166.75 50.31"/><path class="cls-2" d="M267.15,133.19c-.84,0-1.74.33-1.74,1.13s.82.93,1.79,1.09c1.32.21,2.63.47,2.63,2s-1.43,2-2.69,2a2.87,2.87,0,0,1-2.8-1.53l.68-.4a2.4,2.4,0,0,0,2.13,1.16c.8,0,1.87-.25,1.87-1.23,0-.82-.92-1.06-1.91-1.21-1.27-.2-2.51-.49-2.51-1.83s1.39-1.85,2.53-1.85a2.59,2.59,0,0,1,2.5,1.2L269,134a2.2,2.2,0,0,0-1.86-.85" transform="translate(-91.94 -82.28)"/><path class="cls-3" d="M281.35,140.56a7.72,7.72,0,0,1-4.43-1.46,6.49,6.49,0,0,1-2.52-4.61c0-.48,0-1,0-1.5a10,10,0,0,0-.34-3.22c-.79-1.9-2.67-1.93-3.57-2H92.61s-.16,0-.16-.18.16-.16.16-.16H270.48c.9.07,3,.11,3.85,2.19a10.19,10.19,0,0,1,.37,3.35c0,.46,0,1,0,1.49a6.16,6.16,0,0,0,2.39,4.37,7,7,0,0,0,5.15,1.31,6.05,6.05,0,0,0,4-2.87,5.63,5.63,0,0,0,.89-4.54c-.08-.3-.21-.59-.32-.9-.51-1.35-1-2.73,0-3.78.74-.77,2.58-.62,2.82-.61h27.25a.17.17,0,0,1,0,.33H289.66c-.16,0-1.93-.16-2.57.51-.86.9-.42,2.11.08,3.43.12.31.25.63.33.93a5.94,5.94,0,0,1-.93,4.8,6.38,6.38,0,0,1-4.24,3A5.5,5.5,0,0,1,281.35,140.56Z" transform="translate(-91.94 -82.28)"/><path class="cls-2" d="M285,131.26l-.08-.38a25.49,25.49,0,0,0-.85-2.9c-.35-1-.8-2.09-1.37-3.37-.25-.55-.51-1.12-.77-1.69s-.58-1.25-.86-1.89l-.38-.88-.76-1.95c-.08-.2-.15-.41-.22-.63l-.12-.37a42.34,42.34,0,0,1-1.84-8.84,46.24,46.24,0,0,1,0-9.22c.15-1.48.37-2.91.64-4.24s.57-2.51.93-3.75c.31-1,.66-2,1.07-3.1.18-.46.36-.88.52-1.27l.18-.4.3-.67,1.7-3.44s-2.71,3.41-2.85,3.63l-.25.39c-.23.37-.47.77-.73,1.21-.58,1-1.1,2-1.58,3-.57,1.23-1.1,2.48-1.56,3.74s-1,2.81-1.35,4.34c-.34,1.32-.62,2.7-.86,4.08-.11.64-.2,1.28-.29,1.92-.17,1.29-.3,2.58-.37,3.85a47.87,47.87,0,0,0,.44,9.35c0,.26.07.53.11.79l.07.4c0,.27.09.53.15.81l.12.56.14.66.55,2.21c.21.76.42,1.48.62,2.16s.33,1.15.48,1.67c.32,1.16.55,2.13.71,3,.1.5.16.94.2,1.32a4.71,4.71,0,0,0-.66,2.32,4.77,4.77,0,1,0,8.82-2.43" transform="translate(-91.94 -82.28)"/><path class="cls-4" d="M278.19,93.12c.81.5,1.57,1,1.76,1.43s-.45.84-1.74,1.49c0,0-.23,1.49-.23,1.49l.13-.06c1.69-.82,3.56-1.94,3-3.38-.36-.88-1.48-1.54-2.57-2.17-.84-.49-1.7-1-1.87-1.46-.23-.64,1-1.39,2.15-2.07.06,0,.6-1.06.6-1.06l-.28.13c-3.63,1.62-3.61,2.92-3.44,3.4.34.94,1.44,1.62,2.5,2.27" transform="translate(-91.94 -82.28)"/><path class="cls-4" d="M275.82,104.38c1.67.63,3.39,1.28,3.74,2,.23.51-.34,1.14-1.78,2,0,0,.15,1.32.15,1.32l.08,0c1.48-.86,3.37-2.18,2.67-3.75-.56-1.25-2.69-2.05-4.74-2.83-1.63-.62-3.32-1.25-3.61-2s1-1.49,2.39-2.14c.05,0,.41-1.55.41-1.55l-.18.08c-2.25,1.06-4.46,2.37-3.77,4.07.5,1.23,2.6,2,4.63,2.79" transform="translate(-91.94 -82.28)"/><path class="cls-4" d="M284.34,118.39c-.81-1.35-3.68-1.54-6.71-1.74-2.44-.16-5.2-.34-5.74-1.13-.33-.48.12-1.21,1.41-2.31l-.05-1.52-.14.11c-1.56,1.3-3.22,3-2.23,4.41.88,1.28,3.7,1.46,6.68,1.66h.14c2.41.16,5.15.34,5.61,1.12.19.32,0,1-1.87,2.75,0,0,.48,1,.48,1l0,0c2.23-1.9,3-3.32,2.39-4.37" transform="translate(-91.94 -82.28)"/></svg>